<svg xmlns="http://www.w3.org/2000/svg" xmlns:xlink="http://www.w3.org/1999/xlink" width="500" zoomAndPan="magnify" viewBox="0 0 375 374.999991" height="500" preserveAspectRatio="xMidYMid meet" version="1.0"><defs><clipPath id="296ebbec17"><path d="M 34 11.058594 L 349 11.058594 L 349 360 L 34 360 Z M 34 11.058594 " clip-rule="nonzero"/></clipPath><clipPath id="9ecd2edf56"><path d="M 136 141.269531 L 256.695312 141.269531 L 256.695312 291.269531 L 136 291.269531 Z M 136 141.269531 " clip-rule="nonzero"/></clipPath><clipPath id="f714a9f53c"><path d="M 135.945312 141.269531 L 256.695312 141.269531 L 256.695312 291.269531 L 135.945312 291.269531 Z M 135.945312 141.269531 " clip-rule="nonzero"/></clipPath><clipPath id="d76e4ce1b9"><path d="M 165.03125 166.410156 L 228 166.410156 L 228 251.160156 L 165.03125 251.160156 Z M 165.03125 166.410156 " clip-rule="nonzero"/></clipPath></defs><rect x="-37.5" width="450" fill="#ffffff" y="-37.499999" height="449.999989" fill-opacity="1"/><rect x="-37.5" width="450" fill="#000000" y="-37.499999" height="449.999989" fill-opacity="1"/><path fill="#7ed957" d="M 318.898438 176.554688 C 321.292969 176.988281 323.472656 177.207031 325.429688 176.335938 C 329.566406 173.722656 348.070312 162.621094 347.417969 156.304688 C 331.308594 138.671875 324.773438 116.464844 324.339844 92.949219 C 312.363281 66.605469 293.644531 43.960938 270.5625 26.980469 C 281.667969 39.609375 290.8125 54.195312 297.5625 69.871094 L 298.214844 71.613281 L 296.253906 71.828125 C 283.847656 72.261719 271.433594 68.78125 260.769531 62.25 L 259.679688 61.378906 L 260.988281 59.199219 L 262.296875 59.636719 C 269.917969 63.773438 278.621094 65.296875 287.113281 63.992188 C 270.351562 52.667969 251.628906 44.613281 232.03125 40.257812 L 231.59375 40.257812 L 231.378906 40.042969 C 224.195312 33.945312 217.664062 26.761719 212.21875 19.136719 C 216.355469 32.636719 223.105469 45.046875 231.8125 56.152344 L 238.34375 64.425781 L 229.851562 58.109375 C 222.230469 52.667969 215.914062 45.480469 211.5625 37.207031 C 147.769531 31.546875 86.59375 64.421875 56.113281 120.597656 C 29.554688 168.929688 30.207031 227.058594 55.898438 274.523438 C 39.132812 232.941406 41.3125 185.476562 63.519531 145.417969 L 64.171875 144.324219 L 66.566406 145.417969 L 65.914062 146.722656 C 42.835938 195.710938 48.28125 253.625 80.285156 297.386719 C 95.960938 318.9375 117.296875 335.703125 141.679688 346.152344 C 161.277344 354.644531 182.609375 358.5625 203.726562 358.128906 C 188.925781 355.515625 174.773438 349.640625 162.359375 340.929688 L 161.273438 340.058594 L 162.359375 337.882812 L 163.667969 338.316406 C 191.753906 349.203125 223.320312 348.113281 250.753906 335.269531 C 262.730469 330.261719 273.832031 323.292969 283.414062 314.585938 C 312.800781 288.894531 327.824219 250.792969 324.558594 212.476562 C 321.949219 235.117188 313.023438 256.890625 298.871094 274.960938 L 293.429688 282.144531 L 296.472656 273.652344 C 300.609375 262.332031 302.355469 250.359375 301.484375 238.386719 C 288.855469 281.929688 249.886719 313.277344 203.945312 315.894531 C 146.035156 319.160156 95.742188 275.832031 90.519531 217.917969 C 89.433594 203.550781 91.171875 188.964844 95.308594 175.25 C 108.808594 132.792969 147.125 102.964844 191.757812 100.570312 C 200.902344 99.917969 210.042969 100.570312 218.96875 102.3125 C 220.496094 98.175781 223.105469 94.472656 226.371094 91.425781 L 227.460938 90.558594 L 229.203125 92.296875 L 228.550781 93.167969 C 224.628906 98.613281 223.542969 105.796875 225.503906 112.109375 C 227.460938 118.640625 232.46875 123.648438 238.785156 126.046875 C 247.929688 129.964844 277.101562 142.59375 281.457031 152.171875 C 284.285156 159.792969 289.945312 164.363281 297.132812 167.195312 C 298.222656 167.632812 299.308594 168.066406 300.179688 168.285156 L 300.394531 168.285156 C 306.492188 171.113281 313.242188 173.292969 318.902344 176.554688 Z M 334.792969 225.976562 C 335.007812 249.488281 328.695312 272.570312 316.289062 292.816406 C 304.097656 313.0625 286.679688 329.609375 265.777344 340.277344 C 289.074219 332.875 308.882812 317.199219 321.730469 296.082031 C 334.359375 274.742188 338.929688 249.925781 334.792969 225.976562 Z M 334.792969 225.976562 " fill-opacity="1" fill-rule="evenodd"/><g clip-path="url(#296ebbec17)"><path fill="#193ebf" d="M 212.4375 35.910156 C 147.777344 29.8125 85.726562 62.90625 54.8125 119.730469 C 23.679688 176.769531 29.558594 246.660156 69.621094 297.824219 C 40.226562 251.886719 38.484375 193.753906 64.613281 146.074219 C 41.316406 195.714844 46.976562 254.066406 79.199219 298.261719 C 111.421875 342.460938 165.414062 365.535156 219.625 358.351562 C 199.378906 357.917969 179.78125 351.386719 163.015625 339.628906 C 140.59375 326.566406 85.730469 274.09375 91.824219 217.921875 C 91.824219 216.617188 91.824219 215.527344 91.605469 214.21875 C 90.953125 200.722656 92.699219 187.660156 96.617188 175.683594 C 102.496094 155.65625 113.816406 137.148438 129.492188 122.5625 C 155.832031 98.175781 191.976562 87.070312 227.460938 92.296875 C 224.851562 95.996094 223.324219 100.351562 223.109375 104.707031 C 222.890625 107.316406 223.324219 109.933594 224.195312 112.542969 C 225.722656 117.769531 229.207031 122.34375 233.777344 125.171875 C 236.386719 126.695312 239.871094 128.003906 242.703125 129.308594 C 265.125 139.320312 277.539062 147.160156 280.148438 152.605469 C 282.980469 160.226562 288.421875 165.449219 296.695312 168.496094 C 303.660156 171.109375 309.976562 174.15625 316.507812 177.640625 C 318.03125 178.511719 318.25 178.730469 319.988281 178.730469 C 322.167969 178.949219 324.34375 178.511719 326.304688 177.425781 C 342.414062 167.628906 349.816406 160.441406 348.726562 155.652344 C 333.925781 139.542969 326.085938 118.421875 325.652344 92.515625 C 311.71875 61.816406 288.855469 36.125 260.335938 18.492188 C 275.792969 33.078125 287.988281 50.710938 296.261719 70.308594 C 284.070312 70.742188 271.878906 67.476562 261.644531 60.949219 C 270.570312 65.738281 280.800781 67.042969 290.601562 64.863281 C 273.183594 52.457031 253.371094 43.53125 232.253906 38.957031 C 222.890625 30.902344 214.835938 21.539062 208.519531 11.089844 C 212.4375 27.851562 220.058594 43.527344 230.726562 57.027344 C 223.105469 51.582031 216.792969 44.179688 212.4375 35.90625 Z M 291.46875 128.441406 C 288.203125 124.738281 284.28125 121.90625 279.710938 119.949219 C 275.355469 108.84375 268.605469 99.046875 259.679688 90.992188 C 268.824219 97.308594 278.1875 103.621094 287.332031 109.9375 C 289.074219 116.03125 290.378906 122.128906 291.46875 128.445312 Z M 291.46875 128.441406 " fill-opacity="1" fill-rule="evenodd"/></g><path fill="#00f85c" d="M 91.820312 217.917969 C 84.199219 270.390625 136.015625 324.820312 163.015625 339.625 C 192.402344 349.640625 223.757812 348.335938 251.40625 336.578125 C 263.164062 331.570312 274.484375 324.601562 284.496094 315.675781 C 317.589844 286.5 332.828125 241.867188 323.902344 198.542969 C 323.902344 225.976562 314.542969 252.539062 297.777344 274.09375 C 302.785156 260.15625 304.308594 245.132812 301.914062 230.550781 C 292.335938 276.269531 252.925781 311.761719 203.945312 314.371094 C 146.46875 317.636719 97.046875 274.75 91.820312 217.921875 Z M 332.179688 210.519531 C 339.796875 268.867188 306.269531 324.820312 251.1875 345.285156 C 281.015625 340.5 307.359375 322.644531 322.816406 296.738281 C 338.492188 270.828125 341.972656 239.261719 332.179688 210.519531 Z M 332.179688 210.519531 " fill-opacity="1" fill-rule="evenodd"/><path fill="#00f85c" d="M 227.460938 92.296875 C 191.972656 87.070312 155.832031 98.175781 129.488281 122.5625 C 116.207031 134.96875 106.195312 149.992188 99.664062 166.324219 C 98.574219 169.371094 97.488281 172.417969 96.617188 175.683594 C 109.679688 134.972656 146.691406 104.488281 191.753906 101.878906 C 201.335938 101.445312 210.914062 102.097656 219.839844 104.054688 C 221.363281 99.484375 223.976562 95.5625 227.460938 92.296875 Z M 227.460938 92.296875 " fill-opacity="1" fill-rule="evenodd"/><path fill="#ffffff" d="M 259.679688 90.992188 C 268.605469 99.042969 275.355469 108.84375 279.710938 119.945312 C 284.28125 121.90625 288.199219 124.738281 291.46875 128.4375 C 290.378906 122.125 289.074219 116.027344 287.332031 109.929688 C 278.1875 103.617188 268.824219 97.300781 259.679688 90.988281 Z M 259.679688 90.992188 " fill-opacity="1" fill-rule="evenodd"/><path fill="#ffffff" d="M 323.46875 164.363281 C 323.253906 162.835938 321.726562 161.53125 320.203125 161.53125 C 318.460938 161.3125 316.9375 162.621094 316.722656 164.144531 C 316.285156 165.886719 317.15625 167.410156 318.683594 168.0625 C 315.632812 164.363281 320.421875 160.441406 323.472656 164.363281 Z M 323.46875 164.363281 " fill-opacity="1" fill-rule="evenodd"/><g clip-path="url(#9ecd2edf56)"><path fill="#ffffff" d="M 196.367188 141.363281 L 196.832031 141.363281 L 198.035156 142.011719 C 198.835938 142.445312 199.679688 142.886719 200.558594 143.332031 C 201.4375 143.78125 202.007812 144.074219 202.269531 144.214844 C 202.53125 144.355469 202.695312 144.4375 202.757812 144.46875 C 202.820312 144.5 203.3125 144.75 204.238281 145.210938 C 205.164062 145.675781 206.042969 146.09375 206.878906 146.464844 C 207.710938 146.835938 208.234375 147.082031 208.453125 147.207031 C 208.667969 147.328125 209.023438 147.5 209.515625 147.714844 C 210.011719 147.933594 210.378906 148.101562 210.628906 148.226562 C 210.875 148.351562 211.414062 148.597656 212.246094 148.96875 C 213.082031 149.339844 214.054688 149.757812 215.164062 150.222656 C 216.277344 150.683594 217.558594 151.195312 219.007812 151.75 C 220.457031 152.308594 221.230469 152.601562 221.324219 152.632812 C 221.414062 152.664062 221.96875 152.847656 222.988281 153.1875 C 224.007812 153.53125 224.792969 153.792969 225.351562 153.976562 C 225.90625 154.164062 226.199219 154.257812 226.230469 154.257812 C 226.261719 154.257812 227.203125 154.535156 229.054688 155.089844 C 230.90625 155.648438 232.0625 155.988281 232.527344 156.109375 C 232.988281 156.234375 233.871094 156.4375 235.164062 156.714844 C 236.460938 156.992188 237.589844 157.222656 238.546875 157.410156 C 239.503906 157.59375 241.355469 157.933594 244.101562 158.429688 C 246.847656 158.925781 248.53125 159.21875 249.148438 159.3125 C 249.765625 159.402344 250.476562 159.511719 251.277344 159.636719 C 252.078125 159.757812 252.882812 159.882812 253.683594 160.007812 C 254.488281 160.128906 255.175781 160.277344 255.746094 160.449219 L 256.601562 160.703125 L 256.460938 166.777344 C 256.371094 170.828125 256.140625 176.535156 255.769531 183.890625 C 255.398438 191.25 255.152344 195.78125 255.027344 197.480469 C 254.902344 199.183594 254.703125 200.976562 254.425781 202.863281 C 254.148438 204.746094 253.933594 206.15625 253.777344 207.082031 C 253.625 208.007812 253.421875 209.03125 253.175781 210.144531 C 252.929688 211.257812 252.726562 212.183594 252.574219 212.925781 C 252.417969 213.667969 252.234375 214.488281 252.019531 215.382812 C 251.800781 216.28125 251.570312 217.207031 251.324219 218.167969 C 251.078125 219.125 250.769531 220.285156 250.398438 221.644531 C 250.027344 223.003906 249.828125 223.761719 249.796875 223.917969 C 249.765625 224.074219 249.503906 224.9375 249.007812 226.515625 C 248.515625 228.09375 247.898438 229.855469 247.15625 231.800781 C 246.417969 233.75 245.984375 234.847656 245.859375 235.09375 C 245.738281 235.34375 245.535156 235.835938 245.257812 236.578125 C 244.980469 237.320312 244.394531 238.636719 243.5 240.523438 C 242.605469 242.40625 241.972656 243.691406 241.601562 244.371094 C 241.230469 245.050781 240.667969 246.085938 239.910156 247.476562 C 239.15625 248.871094 238.738281 249.613281 238.660156 249.703125 C 238.582031 249.796875 238.296875 250.261719 237.804688 251.097656 C 237.3125 251.929688 236.839844 252.695312 236.390625 253.390625 C 235.945312 254.085938 235.589844 254.628906 235.328125 255.015625 C 235.066406 255.402344 234.710938 255.941406 234.261719 256.636719 C 233.816406 257.335938 233.429688 257.90625 233.105469 258.355469 C 232.78125 258.804688 232.457031 259.25 232.132812 259.699219 C 231.808594 260.148438 231.546875 260.519531 231.347656 260.8125 C 231.144531 261.105469 230.976562 261.355469 230.835938 261.554688 C 230.699219 261.753906 230.449219 262.09375 230.097656 262.574219 C 229.742188 263.054688 229.402344 263.519531 229.078125 263.964844 C 228.753906 264.414062 228.089844 265.203125 227.085938 266.332031 C 226.082031 267.460938 225.511719 268.109375 225.375 268.28125 C 225.234375 268.449219 225.101562 268.597656 224.980469 268.71875 C 224.855469 268.84375 224.425781 269.308594 223.683594 270.113281 C 222.941406 270.914062 222.140625 271.75 221.277344 272.617188 C 220.410156 273.480469 219.847656 274.03125 219.585938 274.261719 C 219.324219 274.496094 218.699219 275.058594 217.710938 275.957031 C 216.722656 276.851562 215.929688 277.570312 215.328125 278.113281 C 214.726562 278.652344 214.167969 279.148438 213.660156 279.597656 C 213.152344 280.042969 212.441406 280.664062 211.53125 281.453125 C 210.621094 282.238281 209.972656 282.78125 209.585938 283.074219 C 209.199219 283.367188 208.691406 283.769531 208.058594 284.28125 C 207.425781 284.789062 206.605469 285.347656 205.605469 285.949219 C 204.601562 286.554688 203.921875 286.96875 203.566406 287.203125 C 203.210938 287.433594 202.757812 287.726562 202.199219 288.082031 C 201.644531 288.4375 201.335938 288.65625 201.273438 288.734375 C 201.214844 288.808594 200.671875 289.113281 199.65625 289.636719 C 198.636719 290.164062 197.804688 290.550781 197.15625 290.796875 L 196.183594 291.167969 L 195.71875 291.027344 C 195.410156 290.9375 194.949219 290.734375 194.332031 290.425781 C 193.714844 290.117188 193.082031 289.792969 192.433594 289.453125 C 191.785156 289.113281 191.382812 288.878906 191.226562 288.757812 C 191.074219 288.632812 190.78125 288.414062 190.347656 288.105469 C 189.917969 287.796875 189.230469 287.355469 188.289062 286.785156 C 187.347656 286.214844 186.714844 285.828125 186.390625 285.625 C 186.066406 285.425781 185.648438 285.144531 185.140625 284.789062 C 184.628906 284.433594 183.953125 283.894531 183.101562 283.167969 C 182.253906 282.441406 181.699219 281.960938 181.4375 281.730469 C 181.175781 281.496094 180.632812 281.035156 179.816406 280.339844 C 178.996094 279.640625 178.457031 279.179688 178.195312 278.945312 C 177.933594 278.714844 177.554688 278.367188 177.0625 277.902344 C 176.566406 277.441406 175.84375 276.789062 174.886719 275.957031 C 173.929688 275.121094 173.386719 274.640625 173.265625 274.519531 C 173.140625 274.394531 172.679688 273.960938 171.875 273.21875 C 171.074219 272.476562 170.554688 271.972656 170.324219 271.710938 C 170.09375 271.449219 169.539062 270.847656 168.65625 269.902344 C 167.777344 268.960938 167.066406 268.1875 166.527344 267.582031 C 165.988281 266.980469 165.386719 266.285156 164.722656 265.496094 C 164.058594 264.707031 163.550781 264.058594 163.195312 263.550781 C 162.839844 263.039062 162.53125 262.621094 162.269531 262.296875 C 162.007812 261.972656 161.8125 261.703125 161.691406 261.484375 C 161.566406 261.269531 161.375 260.996094 161.109375 260.671875 C 160.847656 260.347656 160.585938 259.992188 160.324219 259.605469 C 160.0625 259.21875 159.832031 258.863281 159.628906 258.539062 C 159.429688 258.214844 159.234375 257.945312 159.050781 257.726562 C 158.867188 257.511719 158.6875 257.273438 158.519531 257.007812 C 158.347656 256.746094 158.203125 256.507812 158.078125 256.289062 C 157.957031 256.074219 157.753906 255.765625 157.476562 255.363281 C 157.199219 254.960938 156.835938 254.414062 156.390625 253.714844 C 155.941406 253.019531 155.617188 252.511719 155.417969 252.1875 C 155.214844 251.859375 155 251.492188 154.769531 251.074219 C 154.535156 250.65625 154.320312 250.285156 154.121094 249.960938 C 153.917969 249.636719 153.695312 249.242188 153.449219 248.777344 C 153.203125 248.3125 152.753906 247.523438 152.105469 246.410156 C 151.457031 245.296875 151.085938 244.664062 150.996094 244.511719 C 150.902344 244.355469 150.703125 243.953125 150.394531 243.304688 C 150.085938 242.65625 149.746094 241.976562 149.375 241.261719 C 149.003906 240.550781 148.585938 239.640625 148.125 238.527344 C 147.660156 237.414062 147.246094 236.394531 146.875 235.464844 C 146.503906 234.539062 146.117188 233.519531 145.71875 232.40625 C 145.316406 231.292969 144.976562 230.378906 144.699219 229.667969 C 144.421875 228.957031 144.144531 228.136719 143.863281 227.210938 C 143.585938 226.28125 143.332031 225.503906 143.101562 224.867188 C 142.871094 224.234375 142.761719 223.894531 142.777344 223.847656 C 142.792969 223.800781 142.675781 223.347656 142.429688 222.480469 C 142.183594 221.613281 141.828125 220.253906 141.363281 218.398438 C 140.902344 216.542969 140.609375 215.367188 140.484375 214.875 C 140.363281 214.378906 140.160156 213.484375 139.882812 212.183594 C 139.605469 210.886719 139.359375 209.726562 139.144531 208.707031 C 138.925781 207.683594 138.710938 206.496094 138.496094 205.132812 C 138.277344 203.773438 138.109375 202.597656 137.984375 201.609375 C 137.863281 200.621094 137.707031 198.6875 137.523438 195.8125 C 137.335938 192.9375 137.199219 190.601562 137.105469 188.808594 C 137.011719 187.015625 136.921875 185.285156 136.828125 183.613281 C 136.734375 181.945312 136.582031 178.835938 136.363281 174.292969 C 136.148438 169.746094 136.039062 166.359375 136.039062 164.136719 L 136.039062 160.796875 L 136.339844 160.632812 C 136.542969 160.523438 137.351562 160.363281 138.773438 160.144531 C 140.191406 159.929688 140.933594 159.804688 140.996094 159.773438 C 141.054688 159.746094 141.566406 159.652344 142.523438 159.496094 C 143.480469 159.34375 144.542969 159.171875 145.71875 158.988281 C 146.890625 158.800781 148.261719 158.570312 149.835938 158.292969 C 151.410156 158.011719 153.234375 157.65625 155.300781 157.222656 C 157.367188 156.792969 159.082031 156.40625 160.441406 156.066406 C 161.796875 155.726562 163.417969 155.261719 165.300781 154.671875 C 167.183594 154.085938 168.324219 153.730469 168.726562 153.605469 C 169.128906 153.484375 170.285156 153.066406 172.199219 152.355469 C 174.113281 151.644531 175.65625 151.039062 176.828125 150.546875 C 178.003906 150.050781 178.851562 149.695312 179.375 149.480469 C 179.902344 149.261719 181.097656 148.714844 182.964844 147.832031 C 184.832031 146.953125 185.882812 146.457031 186.113281 146.347656 C 186.34375 146.238281 187.03125 145.90625 188.171875 145.351562 C 189.316406 144.792969 190.164062 144.378906 190.71875 144.097656 C 191.273438 143.820312 192.015625 143.449219 192.941406 142.984375 C 193.867188 142.523438 194.453125 142.226562 194.699219 142.105469 C 194.949219 141.980469 195.164062 141.855469 195.347656 141.734375 C 195.535156 141.609375 195.671875 141.515625 195.765625 141.457031 L 195.90625 141.363281 Z M 196.367188 141.363281 " fill-opacity="1" fill-rule="evenodd"/></g><g clip-path="url(#f714a9f53c)"><path stroke-linecap="butt" transform="matrix(0.0925969, 0, 0, 0.0927586, 135.901724, 141.223452)" fill="none" stroke-linejoin="miter" d="M 652.996772 1.507449 L 658.016852 1.507449 L 671.01 8.498038 C 679.658037 13.172468 688.770115 17.931122 698.261863 22.731888 C 707.753611 27.574766 713.912701 30.733165 716.739133 32.249196 C 719.565564 33.765227 721.337357 34.649579 722.012326 34.986475 C 722.687295 35.323371 728.002673 38.018538 738.000648 42.987752 C 747.998622 47.999077 757.49037 52.505059 766.518077 56.505698 C 775.503599 60.506336 781.156462 63.159391 783.518853 64.506974 C 785.839058 65.812446 789.677942 67.665373 794.993321 69.981532 C 800.350886 72.339803 804.316327 74.150618 807.016202 75.498202 C 809.673891 76.845785 815.495497 79.49884 824.481018 83.499478 C 833.508725 87.500117 844.012926 92.006099 855.993621 97.017425 C 868.016502 101.986638 881.853362 107.503308 897.504199 113.48321 C 913.155037 119.505223 921.507775 122.663622 922.520228 123.000518 C 923.490496 123.337413 929.480843 125.316677 940.491271 128.980419 C 951.501699 132.686273 959.980994 135.507776 966.013527 137.487039 C 972.003874 139.508415 975.16779 140.519102 975.505275 140.519102 C 975.842759 140.519102 986.009476 143.509053 1006.005425 149.488954 C 1026.001374 155.510968 1038.488296 159.17471 1043.508376 160.480182 C 1048.48627 161.827765 1058.020204 164.017588 1071.98362 167.007539 C 1085.989221 169.99749 1098.180844 172.482097 1108.516303 174.503472 C 1118.851762 176.482735 1138.847711 180.146477 1168.50415 185.494699 C 1198.160589 190.842921 1216.34256 194.001319 1223.007876 195.012007 C 1229.673192 195.980583 1237.350962 197.159718 1245.998999 198.507301 C 1254.647036 199.812773 1263.337258 201.160356 1271.985295 202.50794 C 1280.675518 203.813411 1288.100174 205.413667 1294.259264 207.266594 L 1303.497899 210.003873 L 1301.979219 275.488005 C 1301.008951 319.15813 1298.520004 380.683736 1294.512377 459.980598 C 1290.50475 539.319573 1287.847061 588.169472 1286.497123 606.488184 C 1285.147186 624.849008 1282.995723 644.178408 1280.000549 664.518496 C 1277.005376 684.816471 1274.68517 700.018897 1272.997749 709.999436 C 1271.352512 719.979976 1269.158864 731.013315 1266.501174 743.01523 C 1263.843485 755.017145 1261.649837 764.997685 1260.0046 772.998962 C 1258.317178 781.000238 1256.334458 789.843754 1254.014253 799.487398 C 1251.651862 809.173154 1249.162915 819.153694 1246.505225 829.513242 C 1243.847536 839.830677 1240.514878 852.337936 1236.507251 866.992906 C 1232.499624 881.647875 1230.348161 889.8176 1230.010677 891.502079 C 1229.673192 893.186559 1226.846761 902.493307 1221.489196 919.506547 C 1216.173817 936.519788 1209.508501 955.512292 1201.493247 976.484059 C 1193.520179 997.497938 1188.837583 1009.331405 1187.487646 1011.98446 C 1186.179894 1014.679627 1183.986245 1019.985737 1180.991072 1027.987013 C 1177.995898 1035.98829 1171.668066 1050.180028 1162.007576 1070.520115 C 1152.347086 1090.818091 1145.513027 1104.672933 1141.5054 1112.000418 C 1137.497773 1119.327903 1131.423055 1130.487578 1123.239059 1145.479443 C 1115.097248 1160.513421 1110.583395 1168.514698 1109.739684 1169.483273 C 1108.895973 1170.493961 1105.816428 1175.505287 1100.501049 1184.517251 C 1095.18567 1193.487103 1090.081219 1201.741052 1085.229881 1209.236984 C 1080.420729 1216.732917 1076.581844 1222.586483 1073.755413 1226.755569 C 1070.928981 1230.924655 1067.090096 1236.736109 1062.238758 1244.232041 C 1057.429606 1251.770086 1053.253237 1257.918436 1049.751837 1262.761314 C 1046.250436 1267.604192 1042.749036 1272.404958 1039.247635 1277.247835 C 1035.746235 1282.090713 1032.919803 1286.091352 1030.768341 1289.24975 C 1028.574692 1292.408149 1026.760714 1295.103316 1025.242034 1297.251027 C 1023.76554 1299.398738 1021.065665 1303.06248 1017.268966 1308.242254 C 1013.430081 1313.422028 1009.759938 1318.433354 1006.258538 1323.23412 C 1002.757138 1328.076998 995.585595 1336.583618 984.743909 1348.753981 C 973.902224 1360.924344 967.743134 1367.914933 966.26664 1369.76786 C 964.74796 1371.578675 963.313652 1373.178931 962.0059 1374.484402 C 960.655962 1375.831986 956.015552 1380.843311 948.000298 1389.51838 C 939.985045 1398.151336 931.337008 1407.1633 922.014002 1416.51216 C 912.64881 1425.818908 906.574092 1431.756698 903.74766 1434.241305 C 900.921229 1436.768024 894.171541 1442.832149 883.498598 1452.517905 C 872.825655 1462.161549 864.261989 1469.910154 857.765414 1475.763719 C 851.26884 1481.575173 845.236307 1486.923394 839.752186 1491.766272 C 834.268065 1496.567038 826.590296 1503.262843 816.761063 1511.769464 C 806.931831 1520.233972 799.92903 1526.087538 795.752661 1529.245936 C 791.576292 1532.404335 786.092171 1536.741869 779.258112 1542.258539 C 772.424054 1547.733097 763.565089 1553.75511 752.765589 1560.240355 C 741.923904 1566.767713 734.583619 1571.231583 730.744734 1573.758302 C 726.905849 1576.242909 722.012326 1579.401307 715.979793 1583.233498 C 709.989445 1587.065688 706.656787 1589.423959 705.981818 1590.266199 C 705.349035 1591.066326 699.485244 1594.351061 688.517002 1599.994066 C 677.506574 1605.679184 668.521053 1609.84827 661.518252 1612.501325 L 651.014051 1616.501963 L 645.993971 1614.985932 C 642.661313 1614.017356 637.683418 1611.827533 631.018102 1608.500687 C 624.352786 1605.17384 617.518727 1601.678546 610.515926 1598.014803 C 603.513126 1594.351061 599.168014 1591.824342 597.480593 1590.51887 C 595.835356 1589.171287 592.67144 1586.813016 587.988845 1583.486169 C 583.348435 1580.159323 575.923778 1575.400669 565.757062 1569.252319 C 555.590345 1563.10397 548.756286 1558.934884 545.254886 1556.745061 C 541.753486 1554.59735 537.239632 1551.565287 531.755511 1547.733097 C 526.229205 1543.900906 518.931105 1538.089453 509.734656 1530.256624 C 500.580392 1522.423795 494.590045 1517.244022 491.763613 1514.759415 C 488.937181 1512.232696 483.07339 1507.263482 474.256611 1499.767549 C 465.397647 1492.229504 459.576041 1487.26029 456.749609 1484.733571 C 453.923178 1482.248964 449.83118 1478.500998 444.515801 1473.489672 C 439.158237 1468.520458 431.35391 1461.487757 421.018452 1452.517905 C 410.682993 1443.505941 404.819202 1438.326167 403.51145 1437.020696 C 402.161512 1435.673112 397.183618 1430.998682 388.493395 1422.997406 C 379.845358 1414.996129 374.234681 1409.563683 371.745733 1406.74218 C 369.256786 1403.920678 363.266438 1397.435432 353.732505 1387.244333 C 344.240757 1377.095345 336.562988 1368.757173 330.741382 1362.229815 C 324.919777 1355.74457 318.423203 1348.248637 311.25166 1339.742017 C 304.080117 1331.235397 298.595996 1324.244808 294.757111 1318.77025 C 290.918226 1313.25358 287.585568 1308.747598 284.759136 1305.252304 C 281.932705 1301.757009 279.823427 1298.851282 278.515676 1296.493011 C 277.165738 1294.176852 275.098646 1291.229014 272.230029 1287.733719 C 269.403597 1284.238424 266.577166 1280.406234 263.750734 1276.237148 C 260.924303 1272.068062 258.435355 1268.235871 256.241707 1264.740577 C 254.090244 1261.245282 251.980967 1258.339555 249.998246 1255.981284 C 248.015525 1253.665125 246.07499 1251.096295 244.261012 1248.23268 C 242.404848 1245.411177 240.843983 1242.842346 239.494045 1240.484075 C 238.186293 1238.167916 235.992645 1234.841069 232.997471 1230.503535 C 230.002297 1226.166001 226.079041 1220.270324 221.269889 1212.732279 C 216.418551 1205.236346 212.917151 1199.761788 210.765688 1196.266494 C 208.572039 1192.729087 206.251834 1188.770561 203.762887 1184.264579 C 201.231754 1179.758597 198.911549 1175.757959 196.760086 1172.262664 C 194.566438 1168.76737 192.161862 1164.514059 189.504172 1159.502733 C 186.846483 1154.491408 181.995145 1145.984787 174.992344 1133.982872 C 167.989544 1121.980957 163.981917 1115.158816 163.011649 1113.516449 C 161.999196 1111.83197 159.847733 1107.494436 156.515075 1100.503847 C 153.182417 1093.513257 149.512274 1086.185773 145.504647 1078.47928 C 141.497021 1070.814899 136.983167 1061.002807 132.005273 1049.000892 C 126.985193 1036.998977 122.513525 1026.00775 118.505898 1015.985098 C 114.498271 1006.004559 110.321902 995.013331 106.018976 983.011416 C 101.673865 971.009501 98.003722 961.155298 95.008548 953.490917 C 92.013374 945.826536 89.018201 936.98302 85.980841 927.00248 C 82.985668 916.979828 80.243607 908.599544 77.75466 901.735291 C 75.265713 894.91315 74.084517 891.249407 74.253259 890.744064 C 74.422002 890.23872 73.156435 885.35373 70.498746 876.00487 C 67.841056 866.65601 64.002172 852.00104 58.982092 831.997849 C 54.004197 811.994657 50.840281 799.31895 49.490344 794.012841 C 48.182592 788.664619 45.988943 779.020975 42.993769 764.997685 C 39.998596 751.016507 37.340906 738.509248 35.020701 727.518021 C 32.658311 716.484682 30.338106 703.682639 28.0179 688.985557 C 25.65551 674.330587 23.841531 661.654881 22.491594 651.000549 C 21.183842 640.346218 19.49642 619.500787 17.513699 588.506368 C 15.488793 557.511949 14.012299 532.328984 12.999846 512.999584 C 11.987393 493.670184 11.017125 475.014576 10.004672 456.990648 C 8.992219 439.008831 7.346983 405.487694 4.984592 356.511458 C 2.664387 307.493111 1.483192 270.982023 1.483192 247.020305 L 1.483192 211.01456 L 4.731479 209.245857 C 6.925127 208.066721 15.657535 206.34013 31.013074 203.981859 C 46.326428 201.6657 54.341681 200.318117 55.01665 199.981221 C 55.649433 199.686437 61.17574 198.675749 71.511199 196.99127 C 81.846658 195.348903 93.321126 193.495976 106.018976 191.516712 C 118.67464 189.495337 133.481767 187.01073 150.482542 184.02078 C 167.483317 180.988717 187.183967 177.156527 209.500121 172.482097 C 231.816276 167.849778 250.33573 163.680692 265.016301 160.01695 C 279.654685 156.353207 297.161687 151.341882 317.49512 144.982972 C 337.828554 138.666175 350.146733 134.833985 354.491845 133.486401 C 358.836956 132.18093 371.323878 127.674948 391.994796 120.010567 C 412.665713 112.346186 429.329004 105.818829 441.984668 100.512719 C 454.682518 95.164497 463.836781 91.332307 469.489645 89.016148 C 475.184693 86.657877 488.093471 80.762199 508.258162 71.244892 C 528.422853 61.769696 539.770765 56.421474 542.259712 55.242338 C 544.748659 54.063203 552.173316 50.483684 564.491495 44.503783 C 576.85186 38.481769 586.006124 34.017899 591.996472 30.985837 C 597.986819 27.995886 606.002073 23.995248 616.000047 18.983922 C 625.998022 14.014708 632.325854 10.814197 634.983543 9.508726 C 637.683418 8.161142 640.003623 6.813559 641.986344 5.508087 C 644.01125 4.160504 645.487744 3.149816 646.500198 2.518137 L 648.018877 1.507449 Z M 652.996772 1.507449 " stroke="#000000" stroke-width="2" stroke-opacity="1" stroke-miterlimit="4"/></g><g clip-path="url(#d76e4ce1b9)"><path fill="#004aad" d="M 224.671875 200.890625 L 220.335938 200.890625 L 220.335938 190.34375 C 220.351562 177.144531 209.617188 166.410156 196.417969 166.410156 C 183.21875 166.410156 172.484375 177.144531 172.484375 190.34375 L 172.484375 200.890625 L 168.164062 200.890625 C 166.445312 200.890625 165.050781 202.285156 165.050781 204.003906 L 165.050781 248.367188 C 165.050781 250.070312 166.445312 251.464844 168.164062 251.464844 L 224.691406 251.464844 C 226.410156 251.464844 227.804688 250.070312 227.804688 248.351562 L 227.804688 204.003906 C 227.785156 202.285156 226.390625 200.890625 224.671875 200.890625 Z M 178.710938 190.34375 C 178.710938 180.582031 186.652344 172.636719 196.417969 172.636719 C 206.183594 172.636719 214.125 180.582031 214.125 190.34375 L 214.125 200.890625 L 178.710938 200.890625 Z M 199.53125 228.414062 L 199.53125 236.597656 C 199.53125 238.316406 198.136719 239.710938 196.417969 239.710938 C 194.699219 239.710938 193.304688 238.316406 193.304688 236.597656 L 193.304688 228.414062 C 191.160156 227.292969 189.699219 225.046875 189.699219 222.476562 C 189.699219 218.769531 192.710938 215.777344 196.402344 215.777344 C 200.109375 215.777344 203.105469 218.785156 203.105469 222.476562 C 203.136719 225.046875 201.675781 227.292969 199.53125 228.414062 Z M 199.53125 228.414062 " fill-opacity="1" fill-rule="nonzero"/></g></svg>